<svg xmlns="http://www.w3.org/2000/svg" version="1.1" width="3300" height="2000"><g id="Notes"><style>
    text {
      font-family: monospace;
      text-anchor: middle;
    }
    text.emphasis {
      font-weight:bold;
    }
    text.lanchor {
      text-anchor: start;
    }
  </style><rect height="2200" id="artboard" fill="white" width="3300" x="0" y="0"/><line id="" style="fill:none;stroke:black;stroke-width:0.5;" x1="263" x2="3036" y1="292" y2="292"/><text class="lanchor emphasis" transform="matrix(1 0 0 1 263 322)">Weight/Scale Variations</text><text transform="matrix(1 0 0 1 559.711 322)">Ultralight</text><text transform="matrix(1 0 0 1 856.422 322)">Thin</text><text transform="matrix(1 0 0 1 1153.13 322)">Light</text><text transform="matrix(1 0 0 1 1449.84 322)">Regular</text><text transform="matrix(1 0 0 1 1746.56 322)">Medium</text><text transform="matrix(1 0 0 1 2043.27 322)">Semibold</text><text transform="matrix(1 0 0 1 2339.98 322)">Bold</text><text transform="matrix(1 0 0 1 2636.69 322)">Heavy</text><text transform="matrix(1 0 0 1 2933.4 322)">Black</text><text id="template-version" style="text-anchor: end;" transform="matrix(1 0 0 1 3036 1933)">Template v.1.0</text><text class="lanchor" transform="matrix(1 0 0 1 263 726)">Small</text><text class="lanchor" transform="matrix(1 0 0 1 263 1156)">Medium</text><text class="lanchor" transform="matrix(1 0 0 1 263 1586)">Large</text></g><g id="Guides"><g id="H-reference" style="fill:#27AAE1;stroke:none;" transform="matrix(1 0 0 1 339 696)"><path d="M 54.9316 0 L 57.666 0 L 30.5664 -70.459 L 28.0762 -70.459 L 0.976562 0 L 3.66211 0 L 12.9395 -24.4629 L 45.7031 -24.4629 Z M 29.1992 -67.0898 L 29.4434 -67.0898 L 44.8242 -26.709 L 13.8184 -26.709 Z"/></g><line id="Baseline-S" style="fill:none;stroke:#27AAE1;opacity:1;stroke-width:0.577;" x1="263" x2="3036" y1="696" y2="696"/><line id="Capline-S" style="fill:none;stroke:#27AAE1;opacity:1;stroke-width:0.577;" x1="263" x2="3036" y1="625.541" y2="625.541"/><g id="H-reference" style="fill:#27AAE1;stroke:none;" transform="matrix(1 0 0 1 339 1126)"><path d="M 54.9316 0 L 57.666 0 L 30.5664 -70.459 L 28.0762 -70.459 L 0.976562 0 L 3.66211 0 L 12.9395 -24.4629 L 45.7031 -24.4629 Z M 29.1992 -67.0898 L 29.4434 -67.0898 L 44.8242 -26.709 L 13.8184 -26.709 Z"/></g><line id="Baseline-M" style="fill:none;stroke:#27AAE1;opacity:1;stroke-width:0.577;" x1="263" x2="3036" y1="1126" y2="1126"/><line id="Capline-M" style="fill:none;stroke:#27AAE1;opacity:1;stroke-width:0.577;" x1="263" x2="3036" y1="1055.54" y2="1055.54"/><g id="H-reference" style="fill:#27AAE1;stroke:none;" transform="matrix(1 0 0 1 339 1556)"><path d="M 54.9316 0 L 57.666 0 L 30.5664 -70.459 L 28.0762 -70.459 L 0.976562 0 L 3.66211 0 L 12.9395 -24.4629 L 45.7031 -24.4629 Z M 29.1992 -67.0898 L 29.4434 -67.0898 L 44.8242 -26.709 L 13.8184 -26.709 Z"/></g><line id="Baseline-L" style="fill:none;stroke:#27AAE1;opacity:1;stroke-width:0.577;" x1="263" x2="3036" y1="1556" y2="1556"/><line id="Capline-L" style="fill:none;stroke:#27AAE1;opacity:1;stroke-width:0.577;" x1="263" x2="3036" y1="1485.54" y2="1485.54"/><rect height="119.336" id="left-margin" style="fill:darkred;stroke:none;opacity:0.4;" width="12.4512" x="1394.06" y="1030.79"/><rect height="119.336" id="right-margin" style="fill:darkgreen;stroke:none;opacity:0.4;" width="12.4512" x="1502.5112" y="1030.79"/><rect x="1406.5112" y="1045" width="96" height="96" fill="none" stroke="blue" stroke-dasharray="5"/><rect x="1394.06" y="1030.79" width="120.9024" height="119.336" fill="none" stroke="blue"/></g><g id="Symbols"><g id="Bold-L" transform="matrix(1 0 0 1 2266 1556)"><path d="M77.441 -35.714 Q82.721 -35.714 86.349 -39.303 Q89.978 -42.891 89.978 -48.171 Q89.978 -53.451 86.355 -57.079 Q82.733 -60.707 77.406 -60.707 Q72.079 -60.707 68.531 -57.085 Q64.984 -53.463 64.984 -48.136 Q64.984 -42.809 68.573 -39.261 Q72.161 -35.714 77.441 -35.714 Z M77.4 13.306 Q98.04 -5.237 107.957 -19.589 Q117.874 -33.94 117.874 -47.324 Q117.874 -65.467 106.16 -77.035 Q94.447 -88.604 77.424 -88.604 Q60.402 -88.604 48.664 -77.035 Q36.926 -65.467 36.926 -47.324 Q36.926 -33.94 47.085 -19.669 Q57.244 -5.399 77.4 13.306 Z M77.4 33.301 Q49.504 10.081 35.636 -9.188 Q21.769 -28.457 21.769 -47.324 Q21.769 -73.078 38.545 -88.501 Q55.321 -103.922 77.4 -103.922 Q99.41 -103.922 116.301 -88.501 Q133.192 -73.078 133.192 -47.324 Q133.192 -28.457 119.244 -9.188 Q105.296 10.081 77.4 33.301 Z"/></g><g id="Semibold-L" transform="matrix(1 0 0 1 1970.27 1556)"><path d="M77.43 -36.204 Q82.441 -36.204 85.929 -39.676 Q89.417 -43.148 89.417 -48.16 Q89.417 -53.171 85.926 -56.659 Q82.435 -60.147 77.397 -60.147 Q72.359 -60.147 68.917 -56.656 Q65.474 -53.165 65.474 -48.127 Q65.474 -43.089 68.946 -39.647 Q72.418 -36.204 77.43 -36.204 Z M77.4 14.708 Q98.391 -4.256 108.448 -19.273 Q118.505 -34.291 118.505 -47.113 Q118.505 -65.626 106.605 -77.431 Q94.706 -89.235 77.414 -89.235 Q60.121 -89.235 48.208 -77.431 Q36.295 -65.626 36.295 -47.113 Q36.295 -34.291 46.594 -19.319 Q56.893 -4.347 77.4 14.708 Z M77.4 31.549 Q50.345 8.819 36.933 -10.31 Q23.521 -29.439 23.521 -47.113 Q23.521 -72.187 39.769 -87.143 Q56.017 -102.1 77.4 -102.1 Q98.744 -102.1 115.057 -87.143 Q131.37 -72.187 131.37 -47.113 Q131.37 -29.439 117.912 -10.31 Q104.455 8.819 77.4 31.549 Z"/></g><g id="Medium-L" transform="matrix(1 0 0 1 1674.31 1556)"><path d="M77.421 -36.573 Q82.231 -36.573 85.613 -39.957 Q88.996 -43.341 88.996 -48.151 Q88.996 -52.961 85.604 -56.343 Q82.212 -59.726 77.39 -59.726 Q72.569 -59.726 69.206 -56.334 Q65.843 -52.942 65.843 -48.12 Q65.843 -43.299 69.227 -39.936 Q72.611 -36.573 77.421 -36.573 Z M77.4 15.76 Q98.653 -3.52 108.816 -19.037 Q118.978 -34.553 118.978 -46.956 Q118.978 -65.746 106.939 -77.727 Q94.901 -89.708 77.406 -89.708 Q59.911 -89.708 47.866 -77.727 Q35.822 -65.746 35.822 -46.956 Q35.822 -34.553 46.226 -19.056 Q56.63 -3.558 77.4 15.76 Z M77.4 30.234 Q50.976 7.873 37.906 -11.151 Q24.836 -30.175 24.836 -46.956 Q24.836 -71.518 40.687 -86.125 Q56.539 -100.733 77.4 -100.733 Q98.245 -100.733 114.124 -86.125 Q130.003 -71.518 130.003 -46.956 Q130.003 -30.175 116.913 -11.151 Q103.824 7.873 77.4 30.234 Z"/></g><g id="Regular-L" transform="matrix(1 0 0 1 1378.56 1556)"><path d="M77.414 -36.842 Q82.076 -36.842 85.382 -40.162 Q88.688 -43.482 88.688 -48.144 Q88.688 -52.806 85.368 -56.112 Q82.048 -59.417 77.386 -59.417 Q72.724 -59.417 69.418 -56.098 Q66.112 -52.778 66.112 -48.116 Q66.112 -43.454 69.432 -40.148 Q72.752 -36.842 77.414 -36.842 Z M77.4 16.531 Q98.846 -2.98 109.086 -18.863 Q119.325 -34.746 119.325 -46.84 Q119.325 -65.834 107.184 -77.944 Q95.043 -90.055 77.4 -90.055 Q59.757 -90.055 47.616 -77.944 Q35.475 -65.834 35.475 -46.84 Q35.475 -34.746 45.956 -18.863 Q56.438 -2.98 77.4 16.531 Z M77.4 29.27 Q51.439 7.179 38.619 -11.768 Q25.8 -30.715 25.8 -46.84 Q25.8 -71.027 41.361 -85.379 Q56.921 -99.73 77.4 -99.73 Q97.879 -99.73 113.439 -85.379 Q129 -71.027 129 -46.84 Q129 -30.715 116.181 -11.768 Q103.361 7.179 77.4 29.27 Z"/></g><g id="Light-L" transform="matrix(1 0 0 1 1082.77 1556)"><path d="M77.43 -37.277 Q81.766 -37.277 84.824 -40.364 Q87.881 -43.452 87.881 -47.788 Q87.881 -52.124 84.793 -55.181 Q81.706 -58.239 77.37 -58.239 Q73.034 -58.239 69.976 -55.151 Q66.919 -52.064 66.919 -47.728 Q66.919 -43.392 70.007 -40.334 Q73.094 -37.277 77.43 -37.277 Z M77.4 16.407 Q97.606 -1.616 108.186 -17.964 Q118.767 -34.312 118.767 -46.53 Q118.767 -65.204 106.905 -77.226 Q95.043 -89.249 77.4 -89.249 Q59.757 -89.249 47.895 -77.226 Q36.033 -65.204 36.033 -46.53 Q36.033 -34.312 46.794 -17.964 Q57.554 -1.616 77.4 16.407 Z M77.4 26.107 Q53.051 5.008 40.883 -13.164 Q28.715 -31.335 28.715 -46.53 Q28.715 -68.857 43.159 -82.681 Q57.603 -96.505 77.4 -96.505 Q97.197 -96.505 111.641 -82.681 Q126.085 -68.857 126.085 -46.53 Q126.085 -31.335 113.917 -13.164 Q101.749 5.008 77.4 26.107 Z"/></g><g id="Thin-L" transform="matrix(1 0 0 1 787.282 1556)"><path d="M77.446 -37.711 Q81.456 -37.711 84.266 -40.566 Q87.075 -43.422 87.075 -47.432 Q87.075 -51.442 84.219 -54.251 Q81.364 -57.061 77.354 -57.061 Q73.344 -57.061 70.534 -54.205 Q67.725 -51.35 67.725 -47.34 Q67.725 -43.33 70.581 -40.52 Q73.436 -37.711 77.446 -37.711 Z M77.4 16.283 Q96.365 -0.251 107.287 -17.065 Q118.209 -33.878 118.209 -46.22 Q118.209 -64.574 106.626 -76.508 Q95.043 -88.442 77.4 -88.442 Q59.757 -88.442 48.174 -76.508 Q36.591 -64.574 36.591 -46.22 Q36.591 -33.878 47.631 -17.065 Q58.67 -0.251 77.4 16.283 Z M77.4 22.944 Q54.664 2.837 43.147 -14.559 Q31.63 -31.955 31.63 -46.22 Q31.63 -66.686 44.958 -79.983 Q58.286 -93.28 77.4 -93.28 Q96.514 -93.28 109.842 -79.983 Q123.17 -66.686 123.17 -46.22 Q123.17 -31.955 111.653 -14.559 Q100.136 2.837 77.4 22.944 Z"/></g><g id="Ultralight-L" transform="matrix(1 0 0 1 491.205 1556)"><path d="M77.456 -37.971 Q81.27 -37.971 83.931 -40.688 Q86.591 -43.404 86.591 -47.218 Q86.591 -51.032 83.875 -53.693 Q81.159 -56.354 77.344 -56.354 Q73.53 -56.354 70.869 -53.637 Q68.209 -50.921 68.209 -47.107 Q68.209 -43.292 70.925 -40.632 Q73.641 -37.971 77.456 -37.971 Z M77.4 16.209 Q95.621 0.568 106.748 -16.525 Q117.874 -33.617 117.874 -46.034 Q117.874 -64.196 106.459 -76.078 Q95.043 -87.959 77.4 -87.959 Q59.757 -87.959 48.341 -76.078 Q36.926 -64.196 36.926 -46.034 Q36.926 -33.617 48.133 -16.525 Q59.34 0.568 77.4 16.209 Z M77.4 21.046 Q55.631 1.535 44.505 -15.396 Q33.379 -32.327 33.379 -46.034 Q33.379 -65.384 46.037 -78.364 Q58.695 -91.345 77.4 -91.345 Q96.105 -91.345 108.763 -78.364 Q121.421 -65.384 121.421 -46.034 Q121.421 -32.327 110.295 -15.396 Q99.169 1.535 77.4 21.046 Z"/></g><g id="Bold-M" transform="matrix(1 0 0 1 2281.8 1126)"><path d="M60 -33.98 Q64.75 -33.98 68 -37.23 Q71.25 -40.48 71.25 -45.23 Q71.25 -49.98 68 -53.23 Q64.75 -56.48 60 -56.48 Q55.25 -56.48 52 -53.23 Q48.75 -49.98 48.75 -45.23 Q48.75 -40.48 52 -37.23 Q55.25 -33.98 60 -33.98 Z M60 -1.855 Q74.375 -14.855 81.438 -24.73 Q88.5 -34.605 88.5 -44.73 Q88.5 -57.476 80.246 -65.603 Q71.991 -73.73 59.996 -73.73 Q48 -73.73 39.75 -65.603 Q31.5 -57.476 31.5 -44.73 Q31.5 -34.605 38.562 -24.792 Q45.625 -14.98 60 -1.855 Z M60 19.02 Q37.875 0.645 26.812 -14.355 Q15.75 -29.355 15.75 -44.73 Q15.75 -65.195 29.094 -77.337 Q42.438 -89.48 60 -89.48 Q77.562 -89.48 90.906 -77.337 Q104.25 -65.195 104.25 -44.73 Q104.25 -29.355 93.188 -14.355 Q82.125 0.645 60 19.02 Z"/></g><g id="Semibold-M" transform="matrix(1 0 0 1 1985.97 1126)"><path d="M60 -34.523 Q64.478 -34.523 67.592 -37.638 Q70.707 -40.752 70.707 -45.23 Q70.707 -49.708 67.592 -52.822 Q64.478 -55.936 60 -55.936 Q55.522 -55.936 52.408 -52.822 Q49.294 -49.708 49.294 -45.23 Q49.294 -40.752 52.408 -37.638 Q55.522 -34.523 60 -34.523 Z M60 -0.388 Q74.755 -13.822 81.954 -24.377 Q89.152 -34.931 89.152 -44.513 Q89.152 -57.641 80.71 -66.011 Q72.267 -74.382 59.998 -74.382 Q47.728 -74.382 39.288 -66.011 Q30.848 -57.641 30.848 -44.513 Q30.848 -34.931 38.046 -24.412 Q45.245 -13.893 60 -0.388 Z M60 17.172 Q38.745 -0.659 28.171 -15.523 Q17.598 -30.387 17.598 -44.513 Q17.598 -64.232 30.385 -75.932 Q43.172 -87.632 60 -87.632 Q76.828 -87.632 89.615 -75.932 Q102.402 -64.232 102.402 -44.513 Q102.402 -30.387 91.829 -15.523 Q81.255 -0.659 60 17.172 Z"/></g><g id="Medium-M" transform="matrix(1 0 0 1 1689.91 1126)"><path d="M60 -34.931 Q64.275 -34.931 67.287 -37.943 Q70.299 -40.955 70.299 -45.23 Q70.299 -49.504 67.287 -52.517 Q64.275 -55.529 60 -55.529 Q55.725 -55.529 52.713 -52.517 Q49.701 -49.504 49.701 -45.23 Q49.701 -40.955 52.713 -37.943 Q55.725 -34.931 60 -34.931 Z M60 0.713 Q75.041 -13.048 82.341 -24.112 Q89.641 -35.176 89.641 -44.35 Q89.641 -57.764 81.057 -66.318 Q72.473 -74.871 59.999 -74.871 Q47.525 -74.871 38.942 -66.318 Q30.359 -57.764 30.359 -44.35 Q30.359 -35.176 37.659 -24.127 Q44.959 -13.078 60 0.713 Z M60 15.786 Q39.397 -1.638 29.19 -16.4 Q18.984 -31.162 18.984 -44.35 Q18.984 -63.51 31.353 -74.878 Q43.722 -86.246 60 -86.246 Q76.278 -86.246 88.647 -74.878 Q101.016 -63.51 101.016 -44.35 Q101.016 -31.162 90.81 -16.4 Q80.603 -1.638 60 15.786 Z"/></g><g id="Regular-M" transform="matrix(1 0 0 1 1394.06 1126)"><path d="M60 -35.23 Q64.125 -35.23 67.062 -38.167 Q70 -41.105 70 -45.23 Q70 -49.355 67.062 -52.292 Q64.125 -55.23 60 -55.23 Q55.875 -55.23 52.938 -52.292 Q50 -49.355 50 -45.23 Q50 -41.105 52.938 -38.167 Q55.875 -35.23 60 -35.23 Z M60 1.52 Q75.25 -12.48 82.625 -23.917 Q90 -35.355 90 -44.23 Q90 -57.855 81.312 -66.542 Q72.625 -75.23 60 -75.23 Q47.375 -75.23 38.688 -66.542 Q30 -57.855 30 -44.23 Q30 -35.355 37.375 -23.917 Q44.75 -12.48 60 1.52 Z M60 14.77 Q39.875 -2.355 29.938 -17.042 Q20 -31.73 20 -44.23 Q20 -62.98 32.062 -74.105 Q44.125 -85.23 60 -85.23 Q75.875 -85.23 87.938 -74.105 Q100 -62.98 100 -44.23 Q100 -31.73 90.062 -17.042 Q80.125 -2.355 60 14.77 Z"/></g><g id="Light-M" transform="matrix(1 0 0 1 1098.18 1126)"><path d="M60.008 -35.903 Q63.74 -35.903 66.389 -38.561 Q69.038 -41.218 69.038 -44.95 Q69.038 -48.682 66.381 -51.331 Q63.723 -53.98 59.992 -53.98 Q56.26 -53.98 53.611 -51.322 Q50.962 -48.665 50.962 -44.933 Q50.962 -41.201 53.619 -38.552 Q56.277 -35.903 60.008 -35.903 Z M60 2.337 Q74.673 -10.797 82.457 -22.86 Q90.24 -34.922 90.24 -43.99 Q90.24 -57.663 81.553 -66.47 Q72.865 -75.278 60 -75.278 Q47.135 -75.278 38.447 -66.47 Q29.76 -57.663 29.76 -43.99 Q29.76 -34.922 37.543 -22.86 Q45.327 -10.797 60 2.337 Z M60 12.318 Q41.125 -4.038 31.692 -18.124 Q22.26 -32.211 22.26 -43.99 Q22.26 -61.297 33.457 -72.013 Q44.654 -82.73 60 -82.73 Q75.346 -82.73 86.543 -72.013 Q97.74 -61.297 97.74 -43.99 Q97.74 -32.211 88.308 -18.124 Q78.875 -4.038 60 12.318 Z"/></g><g id="Thin-M" transform="matrix(1 0 0 1 802.565 1126)"><path d="M60.017 -36.576 Q63.356 -36.576 65.716 -38.954 Q68.077 -41.331 68.077 -44.67 Q68.077 -48.009 65.699 -50.369 Q63.322 -52.73 59.983 -52.73 Q56.644 -52.73 54.284 -50.352 Q51.923 -47.975 51.923 -44.636 Q51.923 -41.297 54.301 -38.937 Q56.678 -36.576 60.017 -36.576 Z M60 3.155 Q74.096 -9.115 82.288 -21.802 Q90.481 -34.49 90.481 -43.749 Q90.481 -57.47 81.793 -66.398 Q73.106 -75.326 60 -75.326 Q46.894 -75.326 38.207 -66.398 Q29.519 -57.47 29.519 -43.749 Q29.519 -34.49 37.712 -21.802 Q45.904 -9.115 60 3.155 Z M60 9.866 Q42.375 -5.72 33.447 -19.206 Q24.519 -32.691 24.519 -43.749 Q24.519 -59.615 34.851 -69.922 Q45.183 -80.23 60 -80.23 Q74.817 -80.23 85.149 -69.922 Q95.481 -59.615 95.481 -43.749 Q95.481 -32.691 86.553 -19.206 Q77.625 -5.72 60 9.866 Z"/></g><g id="Ultralight-M" transform="matrix(1 0 0 1 506.415 1126)"><path d="M60.022 -36.98 Q63.125 -36.98 65.312 -39.19 Q67.5 -41.399 67.5 -44.502 Q67.5 -47.605 65.29 -49.792 Q63.081 -51.98 59.978 -51.98 Q56.875 -51.98 54.688 -49.77 Q52.5 -47.561 52.5 -44.458 Q52.5 -41.355 54.71 -39.167 Q56.919 -36.98 60.022 -36.98 Z M60 3.645 Q73.75 -8.105 82.188 -21.167 Q90.625 -34.23 90.625 -43.605 Q90.625 -57.355 81.938 -66.355 Q73.25 -75.355 60 -75.355 Q46.75 -75.355 38.062 -66.355 Q29.375 -57.355 29.375 -43.605 Q29.375 -34.23 37.812 -21.167 Q46.25 -8.105 60 3.645 Z M60 8.395 Q43.125 -6.73 34.5 -19.855 Q25.875 -32.98 25.875 -43.605 Q25.875 -58.605 35.688 -68.667 Q45.5 -78.73 60 -78.73 Q74.5 -78.73 84.312 -68.667 Q94.125 -58.605 94.125 -43.605 Q94.125 -32.98 85.5 -19.855 Q76.875 -6.73 60 8.395 Z"/></g><g id="Bold-S" transform="matrix(1 0 0 1 2294.23 696)"><path d="M47.361 -34.244 Q50.792 -34.244 53.11 -36.582 Q55.427 -38.921 55.427 -42.352 Q55.427 -45.783 53.089 -48.101 Q50.75 -50.418 47.319 -50.418 Q43.888 -50.418 41.57 -48.08 Q39.253 -45.741 39.253 -42.31 Q39.253 -38.879 41.591 -36.561 Q43.93 -34.244 47.361 -34.244 Z M47.34 -9.39 Q58.386 -19.154 64.106 -26.798 Q69.827 -34.441 69.827 -42.43 Q69.827 -52.092 63.412 -58.455 Q56.998 -64.817 47.337 -64.817 Q37.675 -64.817 31.264 -58.455 Q24.854 -52.092 24.854 -42.43 Q24.854 -34.441 30.574 -26.847 Q36.294 -19.253 47.34 -9.39 Z M47.34 5.995 Q30.28 -7.922 21.748 -19.258 Q13.216 -30.595 13.216 -42.43 Q13.216 -56.998 23.005 -66.727 Q32.793 -76.455 47.291 -76.455 Q61.788 -76.455 71.626 -66.727 Q81.464 -56.998 81.464 -42.43 Q81.464 -30.595 72.983 -19.302 Q64.501 -8.009 47.34 5.995 Z"/></g><g id="Semibold-S" transform="matrix(1 0 0 1 1998.1 696)"><path d="M47.361 -34.673 Q50.577 -34.673 52.788 -36.904 Q54.998 -39.135 54.998 -42.352 Q54.998 -45.568 52.767 -47.779 Q50.536 -49.989 47.319 -49.989 Q44.103 -49.989 41.892 -47.758 Q39.682 -45.527 39.682 -42.31 Q39.682 -39.094 41.913 -36.883 Q44.144 -34.673 47.361 -34.673 Z M47.34 -8.233 Q58.686 -18.339 64.514 -26.519 Q70.341 -34.698 70.341 -42.258 Q70.341 -52.222 63.778 -58.777 Q57.216 -65.332 47.338 -65.332 Q37.46 -65.332 30.9 -58.777 Q24.339 -52.222 24.339 -42.258 Q24.339 -34.698 30.166 -26.547 Q35.994 -18.395 47.34 -8.233 Z M47.34 4.537 Q30.966 -8.951 22.82 -20.18 Q14.674 -31.409 14.674 -42.258 Q14.674 -56.239 24.023 -65.618 Q33.372 -74.997 47.291 -74.997 Q61.209 -74.997 70.608 -65.618 Q80.006 -56.239 80.006 -42.258 Q80.006 -31.409 71.911 -20.224 Q63.815 -9.039 47.34 4.537 Z"/></g><g id="Medium-S" transform="matrix(1 0 0 1 1701.85 696)"><path d="M47.361 -34.994 Q50.417 -34.994 52.547 -37.145 Q54.677 -39.296 54.677 -42.352 Q54.677 -45.408 52.526 -47.538 Q50.375 -49.668 47.319 -49.668 Q44.263 -49.668 42.133 -47.517 Q40.003 -45.366 40.003 -42.31 Q40.003 -39.254 42.154 -37.124 Q44.305 -34.994 47.361 -34.994 Z M47.34 -7.364 Q58.911 -17.728 64.819 -26.31 Q70.727 -34.891 70.727 -42.13 Q70.727 -52.319 64.053 -59.019 Q57.379 -65.718 47.339 -65.718 Q37.3 -65.718 30.626 -59.019 Q23.953 -52.319 23.953 -42.13 Q23.953 -34.891 29.861 -26.322 Q35.769 -17.752 47.34 -7.364 Z M47.34 3.444 Q31.481 -9.722 23.624 -20.871 Q15.767 -32.02 15.767 -42.13 Q15.767 -55.669 24.787 -64.786 Q33.806 -73.904 47.291 -73.904 Q60.775 -73.904 69.844 -64.786 Q78.913 -55.669 78.913 -42.13 Q78.913 -32.02 71.106 -20.915 Q63.3 -9.81 47.34 3.444 Z"/></g><g id="Regular-S" transform="matrix(1 0 0 1 1405.73 696)"><path d="M47.361 -35.23 Q50.299 -35.23 52.37 -37.322 Q54.441 -39.414 54.441 -42.352 Q54.441 -45.29 52.349 -47.361 Q50.257 -49.432 47.319 -49.432 Q44.381 -49.432 42.31 -47.34 Q40.239 -45.248 40.239 -42.31 Q40.239 -39.372 42.331 -37.301 Q44.423 -35.23 47.361 -35.23 Z M47.34 -6.727 Q59.076 -17.28 65.043 -26.156 Q71.01 -35.033 71.01 -42.035 Q71.01 -52.391 64.254 -59.196 Q57.498 -66.001 47.34 -66.001 Q37.182 -66.001 30.426 -59.196 Q23.67 -52.391 23.67 -42.035 Q23.67 -35.033 29.637 -26.156 Q35.604 -17.28 47.34 -6.727 Z M47.34 2.642 Q31.858 -10.289 24.214 -21.379 Q16.569 -32.468 16.569 -42.035 Q16.569 -55.251 25.347 -64.176 Q34.124 -73.102 47.291 -73.102 Q60.457 -73.102 69.284 -64.176 Q78.111 -55.251 78.111 -42.035 Q78.111 -32.468 70.517 -21.422 Q62.923 -10.376 47.34 2.642 Z"/></g><g id="Light-S" transform="matrix(1 0 0 1 1109.75 696)"><path d="M47.368 -35.761 Q49.995 -35.761 51.839 -37.632 Q53.682 -39.503 53.682 -42.131 Q53.682 -44.759 51.811 -46.602 Q49.94 -48.446 47.312 -48.446 Q44.685 -48.446 42.841 -46.575 Q40.998 -44.703 40.998 -42.076 Q40.998 -39.448 42.869 -37.605 Q44.74 -35.761 47.368 -35.761 Z M47.34 -6.082 Q58.621 -15.952 64.91 -25.322 Q71.2 -34.691 71.2 -41.845 Q71.2 -52.239 64.444 -59.139 Q57.688 -66.039 47.34 -66.039 Q36.992 -66.039 30.236 -59.139 Q23.48 -52.239 23.48 -41.845 Q23.48 -34.691 29.77 -25.322 Q36.059 -15.952 47.34 -6.082 Z M47.34 0.707 Q32.845 -11.616 25.598 -22.232 Q18.352 -32.848 18.352 -41.845 Q18.352 -53.923 26.447 -62.526 Q34.542 -71.129 47.291 -71.129 Q60.04 -71.129 68.184 -62.526 Q76.328 -53.923 76.328 -41.845 Q76.328 -32.848 69.132 -22.276 Q61.936 -11.704 47.34 0.707 Z"/></g><g id="Thin-S" transform="matrix(1 0 0 1 814.015 696)"><path d="M47.374 -36.292 Q49.692 -36.292 51.308 -37.942 Q52.924 -39.593 52.924 -41.91 Q52.924 -44.228 51.273 -45.844 Q49.623 -47.459 47.306 -47.459 Q44.988 -47.459 43.372 -45.809 Q41.756 -44.159 41.756 -41.841 Q41.756 -39.524 43.407 -37.908 Q45.057 -36.292 47.374 -36.292 Z M47.34 -5.438 Q58.166 -14.625 64.778 -24.487 Q71.389 -34.35 71.389 -41.656 Q71.389 -52.087 64.633 -59.082 Q57.878 -66.077 47.34 -66.077 Q36.802 -66.077 30.047 -59.082 Q23.291 -52.087 23.291 -41.656 Q23.291 -34.35 29.902 -24.487 Q36.514 -14.625 47.34 -5.438 Z M47.34 -1.227 Q33.831 -12.944 26.983 -23.085 Q20.135 -33.227 20.135 -41.656 Q20.135 -52.596 27.547 -60.876 Q34.959 -69.157 47.291 -69.157 Q59.623 -69.157 67.084 -60.876 Q74.545 -52.596 74.545 -41.656 Q74.545 -33.227 67.748 -23.13 Q60.95 -13.032 47.34 -1.227 Z"/></g><g id="Ultralight-S" transform="matrix(1 0 0 1 517.792 696)"><path d="M47.378 -36.611 Q49.51 -36.611 50.989 -38.128 Q52.468 -39.646 52.468 -41.778 Q52.468 -43.909 50.951 -45.388 Q49.433 -46.868 47.302 -46.868 Q45.17 -46.868 43.691 -45.35 Q42.212 -43.832 42.212 -41.701 Q42.212 -39.569 43.729 -38.09 Q45.247 -36.611 47.378 -36.611 Z M47.34 -5.051 Q57.893 -13.828 64.698 -23.987 Q71.503 -34.145 71.503 -41.542 Q71.503 -51.996 64.747 -59.048 Q57.992 -66.1 47.34 -66.1 Q36.689 -66.1 29.933 -59.048 Q23.177 -51.996 23.177 -41.542 Q23.177 -34.145 29.982 -23.987 Q36.787 -13.828 47.34 -5.051 Z M47.34 -2.388 Q34.423 -13.74 27.814 -23.598 Q21.204 -33.455 21.204 -41.542 Q21.204 -51.799 28.207 -59.886 Q35.209 -67.973 47.291 -67.973 Q59.372 -67.973 66.424 -59.886 Q73.476 -51.799 73.476 -41.542 Q73.476 -33.455 66.917 -23.642 Q60.358 -13.828 47.34 -2.388 Z"/></g></g></svg>